<svg width="1200" height="219" viewBox="0 0 1200 219" fill="none" xmlns="http://www.w3.org/2000/svg">
<path d="M238.525 10.8608C219.546 8.02881 200.281 5.7263 180.727 3.95337C119.891 -1.51792 56.4683 -1.47662 -0.388214 7.63268L-0.388172 218.539H1200.71V32.3393C1139.1 24.7328 1068.6 32.7682 1008.85 45.309C986.199 50.0613 964.017 55.4216 941.853 60.7791C892.244 72.7679 842.698 84.742 788.052 89.8543C692.402 98.7891 593.261 85.4444 504.333 66.962C473.306 60.5134 442.881 53.4183 412.466 46.3255C363.52 34.911 314.599 23.5025 263.234 14.8038C255.068 13.4143 246.832 12.1 238.525 10.8608Z" fill="#134A45"/>
</svg>
